<svg width="798" height="1262" viewBox="0 0 798 1262" fill="none" xmlns="http://www.w3.org/2000/svg">
<g opacity="0.4">
<path d="M797.467 1027.42L600.967 1140.87V913.967L797.467 1027.42Z" fill="#EDEDED"/>
<path d="M598.975 912.924L798.475 797.743L798.475 1028.11L598.975 912.924Z" fill="#EDEDED"/>
<path d="M598.5 1140.45L798 1025.27L798 1255.63L598.5 1140.45Z" fill="#EDEDED"/>
<path d="M597.975 684.924L797.475 569.743L797.475 800.106L597.975 684.924Z" fill="#EDEDED"/>
<path d="M596.975 456.924L796.475 341.743L796.475 572.106L596.975 456.924Z" fill="#EDEDED"/>
<path d="M596.975 456.924L796.475 341.743L796.475 572.106L596.975 456.924Z" fill="#EDEDED"/>
<path d="M596.975 226.924L796.475 111.743L796.475 342.106L596.975 226.924Z" fill="#EDEDED"/>
<path d="M796.975 798.924L600.475 912.374V685.475L796.975 798.924Z" fill="#EDEDED"/>
<path d="M796.483 570.433L599.983 683.882V456.983L796.483 570.433Z" fill="#EDEDED"/>
<path d="M796.483 570.433L599.983 683.882V456.983L796.483 570.433Z" fill="#EDEDED"/>
<path d="M795.992 341.941L599.492 455.39V228.492L795.992 341.941Z" fill="#EDEDED"/>
<path d="M795.5 113.449L599 226.899V0L795.5 113.449Z" fill="#EDEDED"/>
<path d="M596.5 228.449L400 341.899L400 115L596.5 228.449Z" fill="#EDEDED"/>
<path d="M596.5 458.449L400 571.899L400 345L596.5 458.449Z" fill="#EDEDED"/>
<path d="M391.5 341.449L195 454.899L195 228L391.5 341.449Z" fill="#EDEDED"/>
<path d="M196.5 458.449L0 571.899L1.98361e-05 345L196.5 458.449Z" fill="#EDEDED"/>
<path d="M196.5 684.449L0 797.899L1.98361e-05 571L196.5 684.449Z" fill="#EDEDED"/>
<path d="M196.5 914.449L0 1027.9L1.98361e-05 801L196.5 914.449Z" fill="#EDEDED"/>
<path d="M391.5 570.449L195 683.899L195 457L391.5 570.449Z" fill="#EDEDED"/>
<path d="M391.5 799.449L195 912.899L195 686L391.5 799.449Z" fill="#EDEDED"/>
<path d="M596.5 688.449L400 801.899L400 575L596.5 688.449Z" fill="#EDEDED"/>
<path d="M596.5 918.449L400 1031.9L400 805L596.5 918.449Z" fill="#EDEDED"/>
<path d="M596.5 1148.45L400 1261.9L400 1035L596.5 1148.45Z" fill="#EDEDED"/>
<path d="M391.5 1027.45L195 1140.9L195 914L391.5 1027.45Z" fill="#EDEDED"/>
</g>
</svg>
